<svg width="14" height="12" viewBox="0 0 14 12" fill="none" xmlns="http://www.w3.org/2000/svg">
<path d="M12.205 11.6788L1.90708 11.6788C1.75105 11.6788 1.61114 11.6524 1.48736 11.5996C1.36357 11.5468 1.24993 11.4731 1.14643 11.3783C1.04241 11.284 0.961277 11.1808 0.903026 11.0686C0.844775 10.9564 0.815389 10.8298 0.814869 10.6889L0.814869 1.35508C0.814869 1.09581 0.919149 0.865999 1.12771 0.665652C1.33627 0.465305 1.59606 0.365132 1.90707 0.365132C2.20613 0.353347 2.46644 0.441735 2.688 0.630296C2.90956 0.818858 3.01982 1.05456 3.01878 1.3374L3.01878 8.26705L11.7369 0.365131C11.958 0.164784 12.2183 0.0646113 12.5179 0.0646113C12.8174 0.0646113 13.0772 0.164784 13.2972 0.365131C13.5183 0.565478 13.629 0.801181 13.6296 1.07224C13.6301 1.3433 13.5193 1.579 13.2972 1.77934L4.57908 9.68126H12.2245C12.5106 9.68126 12.7675 9.77837 12.9953 9.97259C13.2231 10.1668 13.3303 10.3997 13.3167 10.6712C13.3297 10.9423 13.2257 11.178 13.0047 11.3783C12.7836 11.5787 12.5171 11.6788 12.205 11.6788Z" fill="#F46D22"/>
</svg>
