<svg width="14" height="12" viewBox="0 0 14 12" fill="none" xmlns="http://www.w3.org/2000/svg">
<path d="M1.8237 0.0736025L12.1216 0.0736023C12.2777 0.0736023 12.4176 0.100001 12.5414 0.152798C12.6651 0.205595 12.7788 0.27937 12.8823 0.374123C12.9863 0.468404 13.0674 0.571641 13.1257 0.683836C13.1839 0.79603 13.2133 0.922602 13.2138 1.06355L13.2138 10.3974C13.2138 10.6566 13.1096 10.8864 12.901 11.0868C12.6924 11.2871 12.4327 11.3873 12.1216 11.3873C11.8226 11.3991 11.5623 11.3107 11.3407 11.1221C11.1192 10.9336 11.0089 10.6979 11.0099 10.415L11.0099 3.48539L2.29179 11.3873C2.07075 11.5877 1.81044 11.6878 1.51086 11.6878C1.21128 11.6878 0.951494 11.5877 0.731492 11.3873C0.51045 11.187 0.399669 10.9513 0.399149 10.6802C0.398629 10.4091 0.50941 10.1734 0.731492 9.9731L9.44964 2.07118L1.8042 2.07118C1.51814 2.07118 1.26121 1.97407 1.03341 1.77985C0.805606 1.58563 0.698467 1.35276 0.711989 1.08123C0.698987 0.810171 0.803006 0.574469 1.02405 0.374123C1.24509 0.173776 1.51164 0.0736025 1.8237 0.0736025Z" fill="#1DD6B4"/>
</svg>
